<?xml version="1.0" standalone="no"?><!DOCTYPE svg PUBLIC "-//W3C//DTD SVG 1.1//EN" "http://www.w3.org/Graphics/SVG/1.1/DTD/svg11.dtd"><svg t="1736756650005" class="icon" viewBox="0 0 1024 1024" version="1.1" xmlns="http://www.w3.org/2000/svg" p-id="1483" xmlns:xlink="http://www.w3.org/1999/xlink" width="200" height="200"><path d="M512.009721 122.808c-88.059592 0-157.023266 67.797106-157.023266 154.323785V439.523315c0 86.527702 68.963675 154.323784 157.023266 154.323785 88.025822 0 157.0028-67.796082 157.002801-154.323785V277.131785c-0.001023-86.526679-68.976978-154.323784-157.002801-154.323785zM640.468418 439.523315c0 71.994708-55.237045 126.275985-128.458697 126.275985-73.232908 0-128.467907-54.281277-128.467906-126.275985V277.131785c0-71.972195 55.234999-126.251426 128.467906-126.251426 73.222675 0 128.458697 54.279231 128.458697 126.251426V439.523315z m-128.517025-235.755422c-12.396331 0-22.469758 9.907651-22.469758 22.079878v88.319512c0 12.195763 10.072403 22.080901 22.469758 22.080901s22.468734-9.884115 22.468734-22.080901v-88.319512c0-12.172227-10.072403-22.079878-22.468734-22.079878z m0.034792 560.043203l-72.774467-73.340355h-35.195593l107.97006 108.793822 107.981317-108.793822h-35.184337l-72.79698 73.340355z m0 96.622618l-72.774467-73.340355h-35.195593l107.97006 108.795868 107.981317-108.795868h-35.184337l-72.79698 73.340355z" fill="#2c2c2c" p-id="1484"></path></svg>